<?xml version="1.0" encoding="UTF-8" standalone="no"?>
<svg
   xmlns:dc="http://purl.org/dc/elements/1.1/"
   xmlns:cc="http://creativecommons.org/ns#"
   xmlns:rdf="http://www.w3.org/1999/02/22-rdf-syntax-ns#"
   xmlns:svg="http://www.w3.org/2000/svg"
   xmlns="http://www.w3.org/2000/svg"
   xmlns:sodipodi="http://sodipodi.sourceforge.net/DTD/sodipodi-0.dtd"
   xmlns:inkscape="http://www.inkscape.org/namespaces/inkscape"
   width="26.248077mm"
   height="26.247725mm"
   viewBox="0 0 26.248077 26.247725"
   version="1.1"
   id="svg714"
   inkscape:version="1.1-dev (bc69992, 2020-04-15)"
   sodipodi:docname="embleme.svg">
  <defs
     id="defs708" />
  <sodipodi:namedview
     id="base"
     pagecolor="#ffffff"
     bordercolor="#666666"
     borderopacity="1.0"
     inkscape:pageopacity="0.0"
     inkscape:pageshadow="2"
     inkscape:zoom="3.6525393"
     inkscape:cx="58.746222"
     inkscape:cy="43.9888"
     inkscape:document-units="mm"
     inkscape:current-layer="layer1"
     showgrid="false"
     fit-margin-top="0"
     fit-margin-left="0"
     fit-margin-right="0"
     fit-margin-bottom="0"
     inkscape:pagecheckerboard="true"
     inkscape:window-width="1280"
     inkscape:window-height="755"
     inkscape:window-x="0"
     inkscape:window-y="23"
     inkscape:window-maximized="0" />
  <metadata
     id="metadata711">
    <rdf:RDF>
      <cc:Work
         rdf:about="">
        <dc:format>image/svg+xml</dc:format>
        <dc:type
           rdf:resource="http://purl.org/dc/dcmitype/StillImage" />
        <dc:title />
      </cc:Work>
    </rdf:RDF>
  </metadata>
  <g
     inkscape:label="Calque 1"
     inkscape:groupmode="layer"
     id="layer1"
     transform="translate(-188.71525,-136.55471)">
    <ellipse
       style="fill:#ffffff;fill-opacity:1;stroke:none;stroke-width:1.04898;stroke-miterlimit:4;stroke-dasharray:none;stroke-opacity:1"
       id="path1589"
       cx="201.83929"
       cy="149.67857"
       rx="11.381958"
       ry="11.344019" />
    <g
       style="fill:#ea148c;fill-opacity:1"
       id="g28"
       transform="matrix(0.35277777,0,0,-0.35277777,201.83935,141.51724)">
      <path
         d="M 0,0 -20.608,-35.694 H 20.608 Z"
         style="fill:#ea148c;fill-opacity:1;fill-rule:nonzero;stroke:none"
         id="path30" />
    </g>
    <g
       id="g102"
       transform="matrix(0.35277777,0,0,-0.35277777,201.83929,162.80243)"
       style="stroke-width:1.00062994;stroke-miterlimit:4;stroke-dasharray:none;fill:#00577b;fill-opacity:1">
      <path
         d="m 0,0 c -20.513,0 -37.202,16.689 -37.202,37.202 0,20.513 16.689,37.201 37.202,37.201 20.513,0 37.202,-16.688 37.202,-37.201 C 37.202,16.689 20.513,0 0,0 m 0,67.085 c -16.478,0 -29.883,-13.405 -29.883,-29.883 0,-16.478 13.405,-29.884 29.883,-29.884 16.477,0 29.883,13.406 29.883,29.884 C 29.883,53.68 16.477,67.085 0,67.085"
         style="fill:#00577b;fill-opacity:1;fill-rule:nonzero;stroke:none;stroke-width:1.00062994;stroke-miterlimit:4;stroke-dasharray:none"
         id="path104" />
    </g>
  </g>
</svg>
