<svg version="1" xmlns="http://www.w3.org/2000/svg" width="682.667" height="682.667" viewBox="0 0 512.000000 512.000000"><path d="M243.8 97.1c-43.5 3.1-84.3 24.7-112 59.3-23.7 29.6-35 61.9-35 99.6 0 52.5 24.2 99.3 67.7 130.5 16.4 11.7 39.3 21.6 60.5 26 16.8 3.5 45.2 3.5 62 0 37.2-7.7 69.8-27.6 93.2-56.9 23.7-29.6 35-61.9 35-99.6 0-52.5-24.2-99.3-67.7-130.5-21.2-15.2-51.3-26.4-75.7-28-4.6-.3-10.3-.7-12.8-.9-2.5-.2-9.3 0-15.2.5zm44.2 35.7c30.5 7.9 56.5 26.6 74.7 53.7C376 206.4 383 230.2 383 256c0 43.4-20 81-56.7 106.3-9.2 6.3-25.7 13.7-38.3 17-11.1 3-12.3 3.1-32 3.1s-20.9-.1-32-3.1c-30.8-8.2-56.6-26.8-74.7-53.8-21.2-31.6-26.4-75.1-13.3-112 11.5-32.2 34.6-57.8 65.7-72.6 19-9.1 33.3-12 57.3-11.5 15.5.3 18.8.7 29 3.4z"/><path d="M211.8 232.8C187.7 274.6 168 309 168 309.3c0 .4 39.6.7 88 .7s88-.3 88-.7c0-1-87.4-152.3-88-152.3-.3 0-20.2 34.1-44.2 75.8z"/></svg>